<?xml version="1.0" encoding="UTF-8" standalone="no"?>
<svg
   xmlns:dc="http://purl.org/dc/elements/1.1/"
   xmlns:cc="http://creativecommons.org/ns#"
   xmlns:rdf="http://www.w3.org/1999/02/22-rdf-syntax-ns#"
   xmlns:svg="http://www.w3.org/2000/svg"
   xmlns="http://www.w3.org/2000/svg"
   height="120.4"
   width="120.4"
   xml:space="preserve"
   viewBox="0 0 120.4 120.4"
   y="0px"
   x="0px"
   id="Calque_1"
   version="1.1"><metadata
     id="metadata1829"><rdf:RDF><cc:Work
         rdf:about=""><dc:format>image/svg+xml</dc:format><dc:type
           rdf:resource="http://purl.org/dc/dcmitype/StillImage" /><dc:title></dc:title></cc:Work></rdf:RDF></metadata><defs
     id="defs1827" /><style
     id="style1816"
     type="text/css">
	.st0{fill:#55748C;}
	.st1{fill:#E72B80;}
</style><path
     style="fill:#55748c"
     id="path1818"
     d="m 120.4,60.2 c 0,33.3 -27,60.2 -60.2,60.2 C 27,120.4 0,93.4 0,60.2 0,27 27,0 60.2,0 c 33.2,0 60.2,26.9 60.2,60.2 z m -86.6,10 C 29,60.6 23.9,47.5 14.5,47.5 c -4.3,0 -6.6,3 -6.6,6.5 0,8.5 12.2,12 23,17.1 z M 52.8,29 c 0,-7.2 5.6,-13.5 15.3,-13.5 7.1,0 14.6,2.9 17.3,7.7 -5.3,-0.4 -7.1,3.3 -6.8,6.3 0.2,2.4 1.2,5.3 4.6,6.3 4.4,1.4 8.9,-1.2 10.2,-5.6 C 96.4,19.8 83.8,8.5 63.5,8.5 43.1,8.4 30.3,19.2 30.3,35.7 c 0,31.3 40.8,30 40.8,51.4 0,10.1 -7.7,16.6 -18.1,16.6 -8.9,0 -19.2,-4.4 -18.9,-11.3 1.4,1.5 3.6,2.5 6.4,2.5 6.6,0 12.4,-4.4 12.4,-11.8 0,-7.1 -5.5,-12.6 -13.1,-12.6 -9,0 -13.7,7.8 -13.7,16.3 0,13.5 12.5,25 32.1,25 23.1,0 37.1,-10.9 37.1,-29.1 C 95.3,51.4 52.8,49.6 52.8,29 Z"
     class="st0" /><g
     transform="translate(-10.7,-10.2)"
     id="g1822"><path
       style="fill:#e72b80"
       id="path1820"
       d="m 127,105.8 c 0.8,1.1 1.2,2.4 1.2,3.9 0,1.5 -0.4,2.8 -1.2,3.7 -0.4,0.5 -1.1,1 -1.9,1.4 1.3,0.5 2.3,1.2 2.9,2.2 0.7,1 1,2.2 1,3.7 0,1.5 -0.4,2.8 -1.1,4 -0.5,0.8 -1.1,1.5 -1.8,2 -0.8,0.6 -1.8,1 -2.9,1.3 -1.1,0.3 -2.3,0.3 -3.6,0.3 H 108.2 V 103 h 12.2 c 3.1,0.2 5.3,1.1 6.6,2.8 z m -13.7,1.7 v 5.6 h 6.1 c 1.1,0 2,-0.2 2.7,-0.6 0.7,-0.4 1,-1.2 1,-2.2 0,-1.2 -0.5,-2 -1.4,-2.3 -0.8,-0.3 -1.8,-0.4 -3,-0.4 h -5.4 z m 0,9.7 v 6.7 h 6.1 c 1.1,0 1.9,-0.1 2.6,-0.4 1.1,-0.5 1.7,-1.6 1.7,-3.2 0,-1.3 -0.5,-2.2 -1.6,-2.7 -0.6,-0.3 -1.4,-0.4 -2.5,-0.4 z"
       class="st1" /></g></svg>