<?xml version="1.0" encoding="UTF-8" standalone="no"?>
<svg
   xmlns:dc="http://purl.org/dc/elements/1.1/"
   xmlns:cc="http://creativecommons.org/ns#"
   xmlns:rdf="http://www.w3.org/1999/02/22-rdf-syntax-ns#"
   xmlns:svg="http://www.w3.org/2000/svg"
   xmlns="http://www.w3.org/2000/svg"
   height="38.980148"
   width="299.22461"
   id="svg995"
   xml:space="preserve"
   viewBox="0 0 299.2246 38.980149"
   y="0px"
   x="0px"
   version="1.1"><metadata
     id="metadata1001"><rdf:RDF><cc:Work
         rdf:about=""><dc:format>image/svg+xml</dc:format><dc:type
           rdf:resource="http://purl.org/dc/dcmitype/StillImage" /><dc:title></dc:title></cc:Work></rdf:RDF></metadata><defs
     id="defs999" /><style
     id="style928"
     type="text/css">
	.st0{display:none;}
	.st1{display:inline;fill:#193154;}
	.st2{display:inline;fill:#55748C;}
	.st3{display:inline;fill:#FFFFFF;}
	.st4{display:inline;}
	.st5{fill:#FFFFFF;}
	.st6{display:inline;fill:#E72B80;stroke:#55748C;stroke-width:2;stroke-miterlimit:10;}
	.st7{display:inline;fill:#E72B80;}
	.st8{font-family:'Helvetica-Light';}
	.st9{font-size:35.0835px;}
	.st10{fill:#55748C;}
	.st11{fill:#E72B80;stroke:#55748C;stroke-width:2;stroke-miterlimit:10;}
	.st12{fill:#E72B80;}
</style><g
     transform="translate(-66.575379,-59.6)"
     style="display:none"
     class="st0"
     id="Calque_2"><rect
       style="display:inline;fill:#193154"
       id="rect930"
       height="157.5"
       width="469.5"
       class="st1"
       y="-8.8999996"
       x="-8" /></g><g
     transform="translate(-66.575379,-59.6)"
     style="display:none"
     class="st0"
     id="Calque_1"><path
       style="display:inline;fill:#55748c"
       id="path933"
       d="M 131.1,70 C 126.4,67.8 121,66.2 121,62.5 c 0,-1.5 1,-2.9 2.9,-2.9 4.2,0 6.4,5.8 8.5,10 z"
       class="st2" /><path
       style="display:inline;fill:#ffffff"
       id="path935"
       d="m 91.5,85.1 c 0,-9.2 6.9,-12.9 13.1,-12.9 4.9,0 7.9,1.9 9.1,5.7 -0.3,0 -1.3,0.2 -1.5,0.2 -1.2,-2.7 -3.2,-3.5 -5.2,-3.5 -3.5,0 -5.6,3.6 -5.6,10.1 0,6.6 2.1,10.3 7,10.3 3.5,0 7.1,-2.5 9.9,-10.2 l 2,0.3 c -3.4,10.2 -8.9,13.2 -15.8,13.2 -6.9,0.1 -13,-4.5 -13,-13.2 z"
       class="st3" /><path
       style="display:inline;fill:#ffffff"
       id="path937"
       d="m 126.8,88.2 c 0.6,5 2.9,6.8 6.6,6.8 4.4,0 8.4,-3.8 10.1,-10.2 l 2,0.3 c -2.4,9.1 -7.8,13.2 -15.6,13.2 -6.8,0 -13.3,-4.1 -13.3,-13.2 0,-9.1 6.5,-13 12.6,-13 6.1,0 10.3,2.4 10.3,8 0,5.6 -5.2,8.2 -11,8.2 -0.7,0 -1.3,-0.1 -1.7,-0.1 z m -0.2,-2 c 3.3,-0.1 4.9,-2.8 4.9,-6.5 0,-3.5 -0.9,-4.8 -2,-4.8 -1.8,0 -2.9,3.3 -2.9,9.6 0,0.7 0,1.2 0,1.7 z"
       class="st3" /><path
       style="display:inline;fill:#ffffff"
       id="path939"
       d="m 145.9,72.9 c 4.7,0 6.4,0.3 6.6,4 1.6,-3 4.3,-4.7 7.6,-4.7 5.4,0 6.8,4.4 6.8,7.7 0,4.1 -0.4,8 -0.4,10.8 0,2.2 0.7,3.6 2.3,3.6 2.1,0 4.2,-4.4 5.5,-10 l 1.8,0.5 c -1.6,7.3 -4.2,13.6 -11.4,13.6 -5.3,0 -7.6,-3.4 -7.6,-7.7 0,-3.7 0.3,-6.2 0.3,-9.5 0,-1.8 -0.4,-4 -2,-4 -1.5,0 -2.8,1.7 -2.9,6.1 v 14.3 h -9.2 V 72.9 Z"
       class="st3" /><path
       style="display:inline;fill:#ffffff"
       id="path941"
       d="m 169.7,89.9 c 0,-3.8 2.1,-5.9 4.7,-6.1 1.1,-3 1.8,-6.2 2.3,-8.3 0.7,-3 2,-3.7 4.7,-3.7 h 5.5 c 1.9,7.7 6,11 6,17.2 0,5.5 -4.5,9.3 -12.7,9.3 -7.9,0.1 -10.5,-4.9 -10.5,-8.4 z m 7.5,-5.4 c 1.3,0.7 2.3,2.2 2.3,4.2 0,3.2 -2.2,5 -4.8,5 -0.4,0 -0.7,0 -0.9,-0.1 0.8,1.1 2.1,2.1 4.3,2.1 3,0 5.2,-1.6 5.2,-5.7 0,-4.4 -2.4,-7.9 -3.6,-14.8 -0.5,2.2 -1.3,5.8 -2.5,9.3 z"
       class="st3" /><path
       style="display:inline;fill:#ffffff"
       id="path943"
       d="m 218,85.3 c 0,7.9 -5.2,13 -12.7,13 -7.5,0 -12.8,-5.1 -12.8,-13 0,-7.9 5.3,-13.1 12.8,-13.1 7.4,0 12.7,5.2 12.7,13.1 z m -9.8,0 c 0,-7.3 -0.9,-10.2 -3,-10.2 -2.1,0 -3.1,3.1 -3.1,10.2 0,7.1 0.9,10.2 3.1,10.2 2.2,0 3,-3 3,-10.2 z"
       class="st3" /><path
       style="display:inline;fill:#55748c"
       id="path945"
       d="m 218.8,93.1 c 0,-3.2 2.5,-5.2 5.4,-5.2 2.9,0 5.4,2 5.4,5.2 0,3.2 -2.4,5.3 -5.4,5.3 -3,0 -5.4,-2.1 -5.4,-5.3 z"
       class="st2" /><path
       style="display:inline;fill:#ffffff"
       id="path947"
       d="M 245.7,76 H 242 v 15.5 c 0,2.3 0.8,3 2.1,3 1.5,0 3.8,-1.3 5.8,-9 l 1.7,0.5 c -1.6,8 -5,12.4 -11.2,12.4 -5.3,0 -7.6,-3.4 -7.6,-8.7 V 76 h -3 v -3 h 3 v -8.3 h 2.6 c 4.9,0 6.6,1.7 6.6,5.8 V 73 h 3.6 v 3 z"
       class="st3" /><path
       style="display:inline;fill:#ffffff"
       id="path949"
       d="m 260.2,98.3 c -7.2,0 -11,-4.5 -11,-13.4 V 73 h 2.6 c 4.9,0 6.7,1.7 6.7,5.8 0,0 -0.1,7.4 -0.1,8.1 0,5.2 1.4,8.2 4.6,8.2 1.7,0 4.8,-2.8 5.4,-7.6 -4.8,0.1 -6.8,-2.9 -6.9,-7.3 -0.2,-5.9 3.4,-7.5 6.1,-7.5 2.6,0 4.5,2 4.5,9.6 -0.1,8.6 -4.2,16 -11.9,16 z"
       class="st3" /><g
       style="display:inline"
       id="g953"
       class="st4"><path
         style="fill:#ffffff"
         id="path951"
         d="m 92.4,88 c 0,6.9 -5.4,10.5 -14.2,10.5 -7.5,0 -12,-4 -11.6,-9.5 0.2,-3 2.1,-5 4.7,-5.1 3,-0.1 4.8,2 4.9,4.5 0.1,2.4 -1.5,3.6 -2.9,3.9 -1.3,0.4 -3,0 -3.8,-0.9 0,2.6 3.4,4.9 7,4.7 3.5,-0.2 6.6,-2 6.6,-5.8 0,-8.6 -15.4,-8.3 -15.4,-20.3 0,-6.3 4.9,-10.4 12.7,-10.4 7.8,0 12.6,4.3 11.4,8.3 -0.5,1.7 -2.1,2.5 -3.8,2 -1.3,-0.4 -1.8,-1.3 -1.8,-2.2 -0.1,-1.1 0.6,-2.5 2.1,-2.3 -1.3,-1.7 -3.4,-3 -6.1,-3 -3.7,0 -5.8,2.4 -5.8,5.2 -0.2,7.8 16,8.5 16,20.4 z"
         class="st5" /></g><line
       style="display:inline;fill:#e72b80;stroke:#55748c;stroke-width:2;stroke-miterlimit:10"
       id="line955"
       y2="98.300003"
       x2="280.29999"
       y1="72.599998"
       x1="287.79999"
       class="st6" /><text
       style="font-size:35.08349991px;font-family:Helvetica-Light;display:inline;fill:#e72b80"
       id="text957"
       class="st7 st8 st9"
       transform="translate(294.4584,97.8656)">Beta</text>
</g><g
     transform="translate(-66.575379,-59.6)"
     id="Calque_1_-_copie"><path
       style="fill:#55748c"
       id="path960"
       d="M 131.1,70 C 126.4,67.8 121,66.2 121,62.5 c 0,-1.5 1,-2.9 2.9,-2.9 4.2,0 6.4,5.8 8.5,10 z"
       class="st10" /><path
       style="fill:#ffffff"
       id="path962"
       d="m 91.5,85.1 c 0,-9.2 6.9,-12.9 13.1,-12.9 4.9,0 7.9,1.9 9.1,5.7 -0.3,0 -1.3,0.2 -1.5,0.2 -1.2,-2.7 -3.2,-3.5 -5.2,-3.5 -3.5,0 -5.6,3.6 -5.6,10.1 0,6.6 2.1,10.3 7,10.3 3.5,0 7.1,-2.5 9.9,-10.2 l 2,0.3 c -3.4,10.2 -8.9,13.2 -15.8,13.2 -6.9,0.1 -13,-4.5 -13,-13.2 z"
       class="st5" /><path
       style="fill:#ffffff"
       id="path964"
       d="m 126.8,88.2 c 0.6,5 2.9,6.8 6.6,6.8 4.4,0 8.4,-3.8 10.1,-10.2 l 2,0.3 c -2.4,9.1 -7.8,13.2 -15.6,13.2 -6.8,0 -13.3,-4.1 -13.3,-13.2 0,-9.1 6.5,-13 12.6,-13 6.1,0 10.3,2.4 10.3,8 0,5.6 -5.2,8.2 -11,8.2 -0.7,0 -1.3,-0.1 -1.7,-0.1 z m -0.2,-2 c 3.3,-0.1 4.9,-2.8 4.9,-6.5 0,-3.5 -0.9,-4.8 -2,-4.8 -1.8,0 -2.9,3.3 -2.9,9.6 0,0.7 0,1.2 0,1.7 z"
       class="st5" /><path
       style="fill:#ffffff"
       id="path966"
       d="m 145.9,72.9 c 4.7,0 6.4,0.3 6.6,4 1.6,-3 4.3,-4.7 7.6,-4.7 5.4,0 6.8,4.4 6.8,7.7 0,4.1 -0.4,8 -0.4,10.8 0,2.2 0.7,3.6 2.3,3.6 2.1,0 4.2,-4.4 5.5,-10 l 1.8,0.5 c -1.6,7.3 -4.2,13.6 -11.4,13.6 -5.3,0 -7.6,-3.4 -7.6,-7.7 0,-3.7 0.3,-6.2 0.3,-9.5 0,-1.8 -0.4,-4 -2,-4 -1.5,0 -2.8,1.7 -2.9,6.1 v 14.3 h -9.2 V 72.9 Z"
       class="st5" /><path
       style="fill:#ffffff"
       id="path968"
       d="m 169.7,89.9 c 0,-3.8 2.1,-5.9 4.7,-6.1 1.1,-3 1.8,-6.2 2.3,-8.3 0.7,-3 2,-3.7 4.7,-3.7 h 5.5 c 1.9,7.7 6,11 6,17.2 0,5.5 -4.5,9.3 -12.7,9.3 -7.9,0.1 -10.5,-4.9 -10.5,-8.4 z m 7.5,-5.4 c 1.3,0.7 2.3,2.2 2.3,4.2 0,3.2 -2.2,5 -4.8,5 -0.4,0 -0.7,0 -0.9,-0.1 0.8,1.1 2.1,2.1 4.3,2.1 3,0 5.2,-1.6 5.2,-5.7 0,-4.4 -2.4,-7.9 -3.6,-14.8 -0.5,2.2 -1.3,5.8 -2.5,9.3 z"
       class="st5" /><path
       style="fill:#ffffff"
       id="path970"
       d="m 218,85.3 c 0,7.9 -5.2,13 -12.7,13 -7.5,0 -12.8,-5.1 -12.8,-13 0,-7.9 5.3,-13.1 12.8,-13.1 7.4,0 12.7,5.2 12.7,13.1 z m -9.8,0 c 0,-7.3 -0.9,-10.2 -3,-10.2 -2.1,0 -3.1,3.1 -3.1,10.2 0,7.1 0.9,10.2 3.1,10.2 2.2,0 3,-3 3,-10.2 z"
       class="st5" /><path
       style="fill:#55748c"
       id="path972"
       d="m 218.8,93.1 c 0,-3.2 2.5,-5.2 5.4,-5.2 2.9,0 5.4,2 5.4,5.2 0,3.2 -2.4,5.3 -5.4,5.3 -3,0 -5.4,-2.1 -5.4,-5.3 z"
       class="st10" /><path
       style="fill:#ffffff"
       id="path974"
       d="M 245.7,76 H 242 v 15.5 c 0,2.3 0.8,3 2.1,3 1.5,0 3.8,-1.3 5.8,-9 l 1.7,0.5 c -1.6,8 -5,12.4 -11.2,12.4 -5.3,0 -7.6,-3.4 -7.6,-8.7 V 76 h -3 v -3 h 3 v -8.3 h 2.6 c 4.9,0 6.6,1.7 6.6,5.8 V 73 h 3.6 v 3 z"
       class="st5" /><path
       style="fill:#ffffff"
       id="path976"
       d="m 260.2,98.3 c -7.2,0 -11,-4.5 -11,-13.4 V 73 h 2.6 c 4.9,0 6.7,1.7 6.7,5.8 0,0 -0.1,7.4 -0.1,8.1 0,5.2 1.4,8.2 4.6,8.2 1.7,0 4.8,-2.8 5.4,-7.6 -4.8,0.1 -6.8,-2.9 -6.9,-7.3 -0.2,-5.9 3.4,-7.5 6.1,-7.5 2.6,0 4.5,2 4.5,9.6 -0.1,8.6 -4.2,16 -11.9,16 z"
       class="st5" /><g
       id="g980"><path
         style="fill:#ffffff"
         id="path978"
         d="m 92.4,88 c 0,6.9 -5.4,10.5 -14.2,10.5 -7.5,0 -12,-4 -11.6,-9.5 0.2,-3 2.1,-5 4.7,-5.1 3,-0.1 4.8,2 4.9,4.5 0.1,2.4 -1.5,3.6 -2.9,3.9 -1.3,0.4 -3,0 -3.8,-0.9 0,2.6 3.4,4.9 7,4.7 3.5,-0.2 6.6,-2 6.6,-5.8 0,-8.6 -15.4,-8.3 -15.4,-20.3 0,-6.3 4.9,-10.4 12.7,-10.4 7.8,0 12.6,4.3 11.4,8.3 -0.5,1.7 -2.1,2.5 -3.8,2 -1.3,-0.4 -1.8,-1.3 -1.8,-2.2 -0.1,-1.1 0.6,-2.5 2.1,-2.3 -1.3,-1.7 -3.4,-3 -6.1,-3 -3.7,0 -5.8,2.4 -5.8,5.2 -0.2,7.8 16,8.5 16,20.4 z"
         class="st5" /></g><line
       style="fill:#e72b80;stroke:#55748c;stroke-width:2;stroke-miterlimit:10"
       id="line982"
       y2="98.300003"
       x2="280.29999"
       y1="72.599998"
       x1="287.79999"
       class="st11" /><g
       id="g992"><path
         style="fill:#e72b80"
         id="path984"
         d="M 297.3,97.9 V 72.6 h 9.1 c 1.5,0 2.7,0.2 3.8,0.5 1.1,0.3 1.9,0.7 2.6,1.3 0.7,0.6 1.2,1.2 1.5,2 0.3,0.8 0.5,1.6 0.5,2.6 0,0.9 -0.1,1.7 -0.4,2.3 -0.2,0.6 -0.5,1.2 -0.9,1.6 -0.4,0.4 -0.8,0.8 -1.3,1 -0.5,0.2 -1,0.4 -1.5,0.5 v 0.1 c 1.8,0.3 3.1,0.9 3.9,2.1 0.8,1.2 1.3,2.5 1.3,4.2 0,1.3 -0.2,2.4 -0.6,3.3 -0.4,0.9 -1,1.6 -1.7,2.2 -0.7,0.6 -1.6,1 -2.6,1.2 -1,0.2 -2.1,0.4 -3.3,0.4 z m 2.4,-14.1 h 6 c 1.2,0 2.3,-0.1 3.1,-0.3 0.8,-0.2 1.5,-0.5 2,-0.9 0.5,-0.4 0.9,-0.9 1.1,-1.5 0.2,-0.6 0.3,-1.3 0.3,-2.1 0,-0.8 -0.1,-1.5 -0.4,-2 -0.3,-0.5 -0.7,-1 -1.2,-1.3 -0.6,-0.3 -1.3,-0.6 -2.2,-0.7 -0.9,-0.1 -2,-0.2 -3.3,-0.2 h -5.5 v 9 z m 0,12 h 6.1 c 1.3,0 2.5,-0.1 3.4,-0.2 1,-0.1 1.8,-0.4 2.4,-0.7 0.6,-0.4 1.1,-0.9 1.4,-1.5 0.3,-0.7 0.5,-1.5 0.5,-2.6 0,-1.1 -0.2,-1.9 -0.5,-2.5 -0.4,-0.6 -0.9,-1.1 -1.5,-1.5 -0.7,-0.4 -1.4,-0.6 -2.4,-0.7 -0.9,-0.1 -1.9,-0.2 -3.1,-0.2 h -6.3 z"
         class="st12" /><path
         style="fill:#e72b80"
         id="path986"
         d="m 321.7,89.3 c 0,1 0.1,1.9 0.4,2.8 0.3,0.9 0.6,1.6 1.1,2.3 0.5,0.6 1.1,1.2 1.9,1.5 0.8,0.4 1.7,0.6 2.7,0.6 1.4,0 2.6,-0.4 3.5,-1.1 1,-0.7 1.6,-1.8 2,-3.1 h 2.4 c -0.3,0.9 -0.6,1.7 -1,2.4 -0.4,0.7 -0.9,1.4 -1.6,1.9 -0.6,0.5 -1.4,1 -2.2,1.3 -0.9,0.3 -1.9,0.5 -3,0.5 -1.5,0 -2.7,-0.2 -3.8,-0.7 -1.1,-0.5 -1.9,-1.2 -2.6,-2 -0.7,-0.8 -1.2,-1.9 -1.5,-3 -0.3,-1.2 -0.5,-2.4 -0.5,-3.7 0,-1.3 0.2,-2.6 0.6,-3.8 0.4,-1.2 0.9,-2.2 1.6,-3.1 0.7,-0.9 1.6,-1.6 2.6,-2.1 1,-0.5 2.2,-0.8 3.5,-0.8 2.5,0 4.5,0.9 5.9,2.6 1.4,1.7 2.1,4.2 2.1,7.5 z m 11.8,-1.8 c 0,-0.9 -0.1,-1.7 -0.4,-2.5 -0.2,-0.8 -0.6,-1.5 -1.1,-2 -0.5,-0.6 -1.1,-1 -1.8,-1.4 -0.7,-0.3 -1.6,-0.5 -2.5,-0.5 -0.9,0 -1.8,0.2 -2.5,0.5 -0.7,0.4 -1.3,0.8 -1.8,1.4 -0.5,0.6 -0.9,1.3 -1.2,2 -0.3,0.8 -0.5,1.6 -0.6,2.5 z"
         class="st12" /><path
         style="fill:#e72b80"
         id="path988"
         d="m 346.3,97.9 c -0.3,0 -0.6,0.1 -1,0.2 -0.4,0.1 -0.9,0.2 -1.4,0.2 -1.1,0 -1.9,-0.3 -2.4,-0.8 C 341,97 340.7,96 340.7,94.7 V 81.4 h -2.6 v -1.8 h 2.6 v -5.1 h 2.1 v 5.1 h 3.4 v 1.8 h -3.4 v 12.5 c 0,0.4 0,0.8 0,1.2 0,0.3 0.1,0.6 0.2,0.8 0.1,0.2 0.3,0.4 0.5,0.5 0.2,0.1 0.6,0.1 1,0.1 0.3,0 0.6,0 0.9,-0.1 0.3,0 0.6,-0.1 0.9,-0.2 z"
         class="st12" /><path
         style="fill:#e72b80"
         id="path990"
         d="m 358,87.3 c 0.4,0 0.9,-0.1 1.4,-0.2 0.5,-0.1 1,-0.2 1.4,-0.4 0.4,-0.2 0.6,-0.4 0.6,-0.8 0.1,-0.4 0.1,-0.7 0.1,-1.1 0,-1.1 -0.3,-2 -1,-2.6 -0.7,-0.7 -1.9,-1 -3.5,-1 -0.7,0 -1.4,0.1 -2,0.2 -0.6,0.1 -1.1,0.4 -1.6,0.7 -0.5,0.3 -0.8,0.7 -1.1,1.3 -0.3,0.5 -0.5,1.2 -0.6,2 h -2.1 c 0.1,-1.1 0.3,-2 0.7,-2.8 0.4,-0.8 1,-1.4 1.6,-1.9 0.7,-0.5 1.4,-0.8 2.3,-1.1 0.9,-0.2 1.8,-0.3 2.8,-0.3 0.9,0 1.8,0.1 2.6,0.3 0.8,0.2 1.5,0.5 2.1,0.9 0.6,0.4 1.1,1 1.4,1.7 0.3,0.7 0.5,1.6 0.5,2.7 v 9.9 c 0,0.8 0.1,1.3 0.4,1.6 0.3,0.2 0.9,0.2 1.8,-0.2 v 1.6 c -0.2,0 -0.4,0.1 -0.7,0.2 -0.3,0.1 -0.6,0.1 -0.9,0.1 -0.3,0 -0.6,0 -0.9,-0.1 -0.4,0 -0.6,-0.2 -0.8,-0.3 -0.2,-0.2 -0.4,-0.4 -0.5,-0.6 -0.1,-0.2 -0.2,-0.5 -0.3,-0.8 0,-0.3 -0.1,-0.6 -0.1,-0.9 -0.9,1 -1.9,1.7 -3.1,2.2 -1.1,0.5 -2.4,0.8 -3.7,0.8 -0.8,0 -1.6,-0.1 -2.3,-0.3 -0.7,-0.2 -1.4,-0.5 -1.9,-1 -0.5,-0.5 -1,-1 -1.3,-1.6 -0.3,-0.6 -0.5,-1.4 -0.5,-2.3 0,-3.1 2.1,-4.9 6.3,-5.5 z m 3.5,1 c -0.9,0.4 -1.8,0.6 -2.7,0.7 -0.9,0.1 -1.8,0.2 -2.7,0.3 -1.6,0.1 -2.9,0.5 -3.8,1.1 -0.9,0.6 -1.3,1.6 -1.3,2.8 0,0.6 0.1,1 0.3,1.5 0.2,0.4 0.5,0.7 0.9,1 0.4,0.3 0.8,0.5 1.3,0.6 0.5,0.1 1,0.2 1.5,0.2 0.8,0 1.7,-0.1 2.5,-0.3 0.8,-0.2 1.5,-0.5 2.1,-1 0.6,-0.4 1.1,-1 1.5,-1.6 0.4,-0.7 0.6,-1.5 0.6,-2.4 v -2.9 z"
         class="st12" /></g></g></svg>